<svg viewBox="0 0 241 108" fill="none" xmlns="http://www.w3.org/2000/svg" preserveAspectRatio="none"><path fill-rule="evenodd" clip-rule="evenodd" d="M233.291 67.736c5.961-.03.568 8.005.568 8.005l-2.555 4.401c-1.29 3-5.856 2.69-5.856 2.69C141.219 77.272 50.916 94.41 50.916 94.41c-2.354.535-1.342-2.085-1.342-2.085l.476-1.383c.566-1.521 1.376-1.552 1.85-1.654 103.734-22.344 181.391-21.552 181.391-21.552zM60.813 26.288L49.508 66.756c-10.344 46.417-34.674 39.938-34.674 39.938C.048 103.443.247 90.86.125 87.491l-.01.007S-.412 82.022.79 77.06c0 0 .643-3.71 3.737-3.71v.002a5.466 5.466 0 0 1 1.243.002l5.23.482c4.468.194 3.46 3.03 3.46 3.03-2.026 8.875.944 15.046.944 15.046 9.65 16.886 22.406-29.508 22.406-29.508 4.62-14.531 7.709-24.7 9.99-33.686-3.763 1.524-6.32-1.08-6.32-1.08-1.459-1.54-.712-3.038-.712-3.038 4.593-1.165 6.078-7.93 6.078-7.93 1.033-4.625 4.678-2.678 4.678-2.678 8.344 3.246 9.66 3.509 9.66 3.509 2.44 1.133 1.02 4.2 1.02 4.2l-1.392 4.587zM236.805 12.92c.556 14.419 3.947 32.615 3.947 32.615 2.556 13.523-15.542 13.897-15.542 13.897-15.053.724-16.77-11.714-16.77-11.714-.464-1.805-1.856-.046-1.856-.046-8.67 9.894-18.831 9.689-18.831 9.689-8.937.867-13.043-6.174-13.043-6.174-.967-1.024-1.611.321-1.611.321-6.927 12.372-16.592 8.006-16.592 8.006-5.155-1.446-4.672-11.903-4.672-11.903.162-3.386 2.81-15.107 2.81-15.107.11-1.448-2.316 1.549-2.316 1.549-4.832 5.623-13.128 22.94-13.128 22.94-1.949 4.594-4.763 4.61-4.763 4.61l-3.866.32c-2.018.147-2.255-2.41-2.255-2.41-.594-3.348 3.866-24.26 3.866-24.26.886-3.917-1.611.16-1.611.16-6.604 9.64-17.98 30.005-17.98 30.005-1.087 2.232-2.319 2.42-2.319 2.42l-1.547.412c-.907.183-2.899.854-3.431-.073a69.144 69.144 0 0 1-1.724-3.27c-1.168-2.491-2.652.823-2.652.823-2.72 5.307-6.799 6.645-9.589 6.88-1.891.298-3.699-.085-4.794-.417a9.57 9.57 0 0 1-1.068-.385c-2.843-1.329-2.843-5.332-2.843-5.332-.047-.38-.055-.623-.055-.623l-.402-4.572c-.303-1.416-1.053-.32-1.053-.32L73.23 74.294c-.978 1.891-2.417 2.762-3.85 3.122-.241.06-.481.105-.72.137-4.753.824-6.95-.959-6.95-.959-.751-.495-1.365-1.165-1.866-1.91-1.42-1.226-1.964-4.073-2.162-6.493-.17-2.104-.078-3.858-.078-3.858.806-10.283 8.216-24.582 8.216-24.582 7.41-16.068 16.591-20.653 16.591-20.653 7.25-4.264 12.726 1.918 12.726 1.918.966-1.53 2.255-4.08 2.255-4.08 2.275-3.716 5.899-1.848 5.899-1.848l5.191 2.126c1.611 1.04-.321 4.104-.321 4.104l-1.128 2.574c-1.611 3.377-13.43 29.649-13.43 29.649-1.906 4.197-1.803 6.751-1.803 6.751.397 3.525 3.969 2.084 3.969 2.084 6.213-2.943 10.804-13.95 10.804-13.95 3.786-7.43 12.726-36.471 12.726-36.471 1.087-2.952 3.292-2.019 3.292-2.019l7.802 1.978c2.024.543.786 2.852.786 2.852-2.799 6.306-10.753 28.519-10.753 28.519 2.094-2.089 24.394-36.421 24.394-36.421.936-1.838 2.668-1.175 2.668-1.175l5.719 1.867c1.973.663.833 2.505.833 2.505l-2.525 5.589c-3.06 6.267-8.376 23.247-8.376 23.247 1.933-6.315 18.992-27.38 18.992-27.38.469-.618.905-1.162 1.143-1.49 1.027-1.416 2.273-.71 2.273-.71l7.188 3.57c1.888.92.889 2.728.889 2.728l-3.746 7.105c-5.315 10.925-8.237 26.274-8.237 26.274-.804 4.62 3.056 1.38 3.056 1.38C167.792 48.215 174 37.689 174 37.689c4.121-25.131 17.768-34.533 17.768-34.533 7.709-4.215 15.159 1.89 15.159 1.89 6.966 6.192.966 17.111.966 17.111-3.768 8.053-17.985 13.846-22.566 15.535-.665.3-2.417 1.319-2.261 3.68.198 2.98.489 7.035 4.212 6.962 16.367-2.633 24.859-16.77 24.859-16.77 1.206-2.387 2.906-1.706 2.906-1.706 5.038 1.645 7.258 3.762 7.258 3.762 1.849 1.364.147 2.8.147 2.8l-1.632 1.719c-3.57 3.892-3.796 6.523-3.796 6.523-.912 6.79 4.605 6.938 4.605 6.938 10.753-.208 7.37-14.22 7.37-14.22-1.843-7.772-1.774-15.293-1.774-15.293-.278-1.534-2.02.472-2.02.472-3.792 3.696-7.725-.68-7.725-.68 7.934-3.86 8.861-11.812 8.861-11.812.684-4.573 1.607-7.468 1.607-7.468.386-1.188 1.228-2.284 2.077-2.453 3.021-.603 6.494.843 6.494.843 1.45.723 1.281 1.445.997 2.766-.986 4.585-.705 9.164-.705 9.164zm-50.418 13.697c-1.087 3.253.555 3.235.555 3.235 2.425.42 10.519-6.489 10.519-6.489 9.101-7.55 4.778-11.523 4.778-11.523-1.234-1.09-3.368-.366-3.368-.366-8.215 3.293-12.484 15.143-12.484 15.143zM70.151 67.733l22.085-36.457s1.26-2.093 1.697-3.453l.012-.083c.009-.073.016-.146.02-.217-.027-1.322-2.403-1.602-2.403-1.602-1.779-.251-3.586.857-4.024 1.147-1.867 1.282-4.692 3.948-7.987 9.47 0 0-15.57 23.362-13.396 31.195 0 0 .158.786.623 1.018 0 0 2.017 1.209 3.373-1.019z" fill="#4a2277"/></svg>